# xmcd CD database file
#
# Track frame offsets:
#	150
#	23356
#	48774
#	77437
#	109418
#	140335
#	159293
#	187515
#	209085
#	229513
#
# Disc length: 3145 seconds
#
# Revision: 0
# Processed by: cddbd v1.5.2PL0 Copyright (c) Steve Scherf et al.
# Submitted via: CDex 1.70beta2
#
DISCID=6b0c470a
DTITLE=Pat Thomi - Remote Control
DYEAR=2000
DGENRE=New Age
TTITLE0=Love's Own Time
TTITLE1=Remote Control
TTITLE2=Havona (Revisited)
TTITLE3=LB
TTITLE4=Lady
TTITLE5=Aria
TTITLE6=The Bitch
TTITLE7=Too Much TooSoon
TTITLE8=Unspoken Words
TTITLE9=The Nut
EXTD=YEAR: 2000
EXTT0=
EXTT1=
EXTT2=
EXTT3=
EXTT4=
EXTT5=
EXTT6=
EXTT7=
EXTT8=
EXTT9=
PLAYORDER=
